# xmcd
#
# Track frame offsets: 
#        150
#        16854
#        33003
#        54781
#        68583
#        89590
#        109596
#        129290
#        149746
#        168150
#        187496
#        205780
#        222790
#        243752
#        261200
#        280706
#        297540
#
# Disc length: 4038 seconds
#
# Revision: 1
# Processed by: cddbd v1.4PL0 Copyright (c) Steve Scherf et al.
# Submitted via: ExactAudioCopy v0.95a3
#
DISCID=f30fc411
DTITLE=Louise Hoffsten - Collection 1991-2002
DYEAR=2002
DGENRE=Rock
TTITLE0=Sockerkompis
TTITLE1=Deala med din djävel
TTITLE2=Let The Best Man Win
TTITLE3=Hit Me With Your Lovething
TTITLE4=Dance On Your Grave
TTITLE5=Nowhere In This World
TTITLE6=Sucker
TTITLE7=Never Gonna Be Your Lady
TTITLE8=Padded Bra
TTITLE9=Sweet Poison
TTITLE10=Miracle
TTITLE11=Nice Doin' Business
TTITLE12=Explain It To My Heart
TTITLE13=Seduction Of Sweet Louise
TTITLE14=Warm and Tender Love
TTITLE15=Healing Rain
TTITLE16=The Only Thing I Got
EXTD=
EXTT0=
EXTT1=
EXTT2=
EXTT3=
EXTT4=
EXTT5=
EXTT6=
EXTT7=
EXTT8=
EXTT9=
EXTT10=
EXTT11=
EXTT12=
EXTT13=
EXTT14=
EXTT15=
EXTT16=
PLAYORDER=
